<svg width="48" height="56" viewBox="0 0 48 56" xmlns="http://www.w3.org/2000/svg">
  <!-- 葫芦茎 -->
  <line x1="24" y1="0" x2="24" y2="6" stroke="white" stroke-width="2.5" stroke-linecap="round"/>
  <!-- 叶子 -->
  <path d="M24 5 Q30 2 32 6 Q28 7 24 6Z" fill="white" opacity="0.8"/>
  <!-- 上球 -->
  <circle cx="24" cy="15" r="9" fill="white"/>
  <!-- 上球阴影层增加立体感 -->
  <circle cx="24" cy="15" r="9" fill="none" stroke="rgba(0,0,0,0.08)" stroke-width="1"/>
  <!-- 上球高光 -->
  <circle cx="27" cy="12" r="2.5" fill="white" opacity="0.4"/>
  <!-- 腰部收缩 -->
  <path d="M18 22 Q15 26 15 28 Q15 30 18 32 L30 32 Q33 30 33 28 Q33 26 30 22Z" fill="white"/>
  <!-- 下球 -->
  <circle cx="24" cy="42" r="14" fill="white"/>
  <!-- 下球阴影层 -->
  <circle cx="24" cy="42" r="14" fill="none" stroke="rgba(0,0,0,0.08)" stroke-width="1"/>
  <!-- 下球高光 -->
  <circle cx="29" cy="36" r="3.5" fill="white" opacity="0.35"/>
  <!-- 腰带装饰线 -->
  <path d="M17 27 Q24 25 31 27" stroke="rgba(0,150,80,0.3)" stroke-width="1" fill="none"/>
</svg>
